<?xml version="1.0" encoding="UTF-8"?>
<svg width="512px" height="416px" viewBox="0 0 512 416" version="1.1" xmlns="http://www.w3.org/2000/svg" xmlns:xlink="http://www.w3.org/1999/xlink">
    <!-- Generator: Sketch 43.2 (39069) - http://www.bohemiancoding.com/sketch -->
    <title>paper-plane</title>
    <desc>Created with Sketch.</desc>
    <defs></defs>
    <g id="Page-1" stroke="none" stroke-width="1" fill="none" fill-rule="evenodd">
        <g id="paper-plane" transform="translate(0.000000, -1.000000)" fill-rule="nonzero" fill="#0A33E0">
            <path d="M511.986,9.391 C511.989,9.33 511.991,9.27 511.993,9.209 C511.995,9.139 511.991,9.07 511.991,9 C511.991,8.87 511.993,8.74 511.987,8.611 C511.982,8.501 511.97,8.392 511.96,8.283 C511.959,8.269 511.958,8.254 511.956,8.24 C511.95,8.177 511.948,8.113 511.94,8.05 C511.932,7.979 511.922,7.909 511.912,7.839 C511.897,7.736 511.875,7.634 511.856,7.531 C511.83,7.388 511.805,7.245 511.77,7.103 C511.766,7.088 511.763,7.073 511.759,7.058 C511.734,6.958 511.701,6.86 511.672,6.76 C511.632,6.621 511.593,6.483 511.545,6.346 C511.522,6.28 511.496,6.216 511.472,6.151 C511.449,6.091 511.423,6.034 511.399,5.974 C511.399,5.973 511.398,5.971 511.397,5.97 C511.351,5.857 511.308,5.744 511.257,5.633 C511.2,5.509 511.134,5.39 511.071,5.269 C511.04,5.209 511.01,5.149 510.977,5.09 C510.949,5.04 510.924,4.99 510.895,4.941 C510.796,4.774 510.686,4.611 510.575,4.45 C510.539,4.398 510.509,4.343 510.472,4.291 C510.47,4.288 510.468,4.286 510.466,4.283 C510.461,4.276 510.455,4.269 510.45,4.262 C510.351,4.127 510.24,3.998 510.131,3.868 C510.063,3.787 509.999,3.701 509.929,3.624 C509.898,3.59 509.864,3.557 509.832,3.522 C509.782,3.468 509.727,3.418 509.675,3.366 C509.565,3.255 509.457,3.142 509.342,3.038 C509.335,3.031 509.328,3.024 509.321,3.017 C509.274,2.975 509.224,2.941 509.176,2.901 C509.154,2.882 509.131,2.864 509.108,2.845 C509.074,2.816 509.045,2.783 509.01,2.755 C508.987,2.737 508.962,2.724 508.939,2.705 C508.864,2.646 508.791,2.586 508.715,2.53 C508.641,2.476 508.563,2.429 508.488,2.377 C508.348,2.282 508.208,2.186 508.063,2.101 C507.957,2.038 507.847,1.984 507.739,1.927 C507.621,1.864 507.504,1.8 507.383,1.743 C507.333,1.72 507.283,1.696 507.232,1.674 C507.2,1.66 507.168,1.65 507.136,1.636 C507.084,1.614 507.032,1.595 506.98,1.574 C506.878,1.533 506.777,1.49 506.674,1.453 C506.563,1.413 506.451,1.381 506.339,1.347 C506.274,1.327 506.21,1.307 506.144,1.289 C506.075,1.27 506.006,1.249 505.936,1.231 C505.788,1.194 505.639,1.167 505.489,1.138 C505.405,1.122 505.322,1.1 505.237,1.087 C505.215,1.084 505.192,1.083 505.17,1.079 C505.032,1.059 504.893,1.047 504.755,1.034 C504.636,1.023 504.518,1.01 504.399,1.003 C504.345,1 504.292,0.997 504.238,0.996 C504.175,0.994 504.112,0.998 504.049,0.998 L504.022,0.998 C503.888,0.998 503.754,0.996 503.62,1.002 C503.513,1.007 503.406,1.019 503.299,1.028 C503.228,1.034 503.157,1.038 503.086,1.046 C503.006,1.055 502.927,1.064 502.848,1.076 C502.742,1.091 502.637,1.114 502.531,1.133 C502.399,1.158 502.266,1.179 502.135,1.21 C502.12,1.214 502.105,1.219 502.089,1.223 C501.978,1.25 501.868,1.285 501.758,1.317 C501.623,1.356 501.488,1.394 501.355,1.441 C501.29,1.463 501.227,1.489 501.163,1.513 C501.146,1.519 501.129,1.523 501.112,1.529 L5.112,193.529 C2.028,194.723 -0.004,197.691 -1.34114941e-13,200.998 C0.003,204.305 2.042,207.269 5.128,208.456 L153.005,265.332 L200.39,411.457 C200.397,411.478 200.408,411.496 200.415,411.516 C200.429,411.559 200.439,411.603 200.454,411.646 C200.566,411.965 200.705,412.275 200.858,412.58 C200.89,412.643 200.923,412.704 200.956,412.766 C201.105,413.045 201.269,413.317 201.453,413.579 C201.477,413.614 201.498,413.651 201.523,413.685 C201.535,413.702 201.547,413.719 201.56,413.736 C201.574,413.754 201.589,413.77 201.603,413.789 C201.663,413.869 201.73,413.946 201.794,414.024 C201.87,414.118 201.942,414.214 202.022,414.305 C202.084,414.374 202.152,414.438 202.217,414.505 L202.307,414.598 C202.353,414.644 202.396,414.693 202.443,414.738 C202.492,414.785 202.539,414.833 202.589,414.879 C202.637,414.923 202.689,414.963 202.739,415.005 C202.893,415.14 203.049,415.271 203.213,415.395 C203.223,415.403 203.232,415.411 203.242,415.419 C203.257,415.43 203.275,415.438 203.29,415.449 C203.34,415.485 203.391,415.518 203.441,415.553 C203.698,415.732 203.968,415.897 204.249,416.046 C204.295,416.07 204.338,416.101 204.384,416.124 C204.399,416.132 204.414,416.137 204.429,416.145 C204.693,416.276 204.964,416.397 205.248,416.501 C205.308,416.523 205.369,416.538 205.429,416.558 C205.508,416.585 205.587,416.609 205.667,416.633 C206.011,416.738 206.357,416.823 206.704,416.881 C206.72,416.884 206.735,416.889 206.751,416.892 C206.784,416.897 206.817,416.896 206.85,416.901 C207.233,416.957 207.617,416.991 207.997,416.991 L207.998,416.991 L207.998,416.991 L207.999,416.991 C208.03,416.991 208.06,416.984 208.091,416.984 C208.42,416.98 208.748,416.953 209.074,416.909 C209.123,416.902 209.173,416.903 209.221,416.896 C209.291,416.885 209.361,416.86 209.431,416.847 C209.684,416.801 209.934,416.743 210.182,416.672 C210.263,416.649 210.345,416.634 210.425,416.609 C210.439,416.605 210.453,416.603 210.467,416.599 C210.505,416.587 210.541,416.569 210.579,416.556 C210.698,416.516 210.814,416.468 210.931,416.422 C211.087,416.36 211.242,416.297 211.392,416.227 C211.415,416.217 211.438,416.209 211.461,416.198 C211.474,416.191 211.489,416.187 211.502,416.181 C211.577,416.145 211.648,416.101 211.722,416.062 C211.877,415.981 212.028,415.895 212.176,415.805 C212.274,415.745 212.371,415.685 212.466,415.621 C212.467,415.62 212.468,415.62 212.469,415.619 C212.497,415.6 212.526,415.584 212.554,415.565 C212.687,415.473 212.813,415.372 212.94,415.273 C213.014,415.215 213.089,415.161 213.161,415.1 C213.24,415.033 213.316,414.962 213.392,414.892 C213.451,414.839 213.507,414.783 213.565,414.727 C213.811,414.488 214.045,414.238 214.258,413.971 C214.276,413.949 214.295,413.928 214.313,413.905 C214.336,413.875 214.356,413.842 214.378,413.812 C214.395,413.79 214.415,413.771 214.432,413.748 L272.889,334.753 C275.517,331.201 274.769,326.192 271.217,323.564 C267.666,320.936 262.655,321.685 260.028,325.236 L234.63,359.558 L254.816,304.452 L445.888,376.973 C446.806,377.321 447.768,377.494 448.726,377.494 C450.125,377.494 451.518,377.127 452.757,376.405 C454.843,375.188 456.268,373.094 456.634,370.707 L511.909,10.205 C511.912,10.188 511.911,10.171 511.913,10.154 C511.932,10.021 511.943,9.888 511.956,9.755 C511.967,9.634 511.98,9.513 511.986,9.391 Z M449.557,38.646 L221.052,204.603 C217.477,207.199 216.684,212.202 219.28,215.777 C220.845,217.932 223.285,219.076 225.759,219.076 C227.389,219.076 229.034,218.579 230.454,217.548 L448.738,59.014 L244.445,288.408 C243.652,289.19 243.005,290.146 242.584,291.256 C242.512,291.444 242.457,291.635 242.4,291.825 L208.46,384.478 L167.047,256.771 C166.274,254.387 164.487,252.617 162.319,251.778 C162.307,251.773 162.296,251.767 162.283,251.762 L30.223,200.969 L449.557,38.646 Z M442.316,358.506 L263.788,290.746 L491.995,34.501 L442.316,358.506 Z" id="Shape"></path>
            <path d="M185.506,248.311 C187.136,248.311 188.781,247.814 190.201,246.783 L205.751,235.489 C209.326,232.893 210.119,227.89 207.523,224.315 C204.926,220.74 199.923,219.947 196.349,222.543 L180.799,233.837 C177.224,236.433 176.431,241.436 179.027,245.011 C180.592,247.167 183.032,248.311 185.506,248.311 Z" id="Shape"></path>
        </g>
    </g>
</svg>