<svg width="431" height="412" viewBox="0 0 431 412" xmlns="http://www.w3.org/2000/svg"><title>001-linkedin-logo</title><path d="M430.117 252.543V411.56h-92.188V263.193c0-37.271-13.334-62.707-46.703-62.707-25.473 0-40.632 17.142-47.301 33.724-2.432 5.928-3.058 14.179-3.058 22.477V411.56h-92.219s1.242-251.285 0-277.32h92.21v39.309c-.187.294-.43.611-.606.896l.606-.896c12.251-18.869 34.13-45.824 83.102-45.824 60.673-.001 106.157 39.636 106.157 124.818zM52.183.558C20.635.558 0 21.251 0 48.463c0 26.619 20.038 47.94 50.959 47.94h.616c32.159 0 52.159-21.317 52.159-47.94-.606-27.212-20-47.905-51.551-47.905zM5.477 411.56h92.184V134.24H5.477v277.32z" fill-rule="nonzero" fill="#FFF"/></svg>