<svg width="730" height="730" viewBox="0 0 730 730" xmlns="http://www.w3.org/2000/svg" xmlns:xlink="http://www.w3.org/1999/xlink"><title>Path 2 + Path 2 + Path 2 + Path 2 + Path 2 + Path 2 + Path 2 + Path 2 + Path 2 + Path 2 + Path 2 + Path 2 + Path 2 + Path 2 + Path 2 + Path 2 + Path 2 + Path 2 + Path 2 + Path 2 + Path 2 + Path 2 + Path 2 + Path 2 + Path 2 + Path 2 + Path 2 + Path 2 + Path 2 + Path 2 + Path 2 + Path 2 + Path 2 + Path 2 + Path 2 + Path 2 + Path 2 + Path 2 + Path 2 + Path 2 + Path 2 + Path 2 + Path 2 + Path 2 + Path 2 + Path 2 + Path 2 + Path 2 + Path 2 + Path 2 + Path 2 + Path 2 + Path 2 + Path 2 + Path 2 + Path 2 + Path 2 + Path 2 + Path 2 + Path 2 + Path 2 + Path 2 + Path 2 + Path 2 + Path 2 + Path 2 + Path 2 + Path 2 + Path 2 + Path 2 + Path 2 + Path 2 + Path 2 + Path 2 + Path 2 + Path 2 + Path 2 + Path 2 + Path 2 + Path 2 Mask</title><defs><path id="a" d="M0 0h730v730H0z"/></defs><g fill="none" fill-rule="evenodd"><mask id="b" fill="#fff"><use xlink:href="#a"/></mask><path d="M1.647 728.52L730.654-.487M-19.353 715.52L709.654-13.487M37.647 763.52L766.654 34.513M16.647 750.52L745.654 21.513M-78.353 666.52L650.654-62.487M-99.353 653.52L629.654-75.487M-42.353 701.52L686.654-27.487M-63.353 688.52L665.654-40.487M1.647 728.52L730.654-.487M-19.353 715.52L709.654-13.487M37.647 763.52L766.654 34.513M16.647 750.52L745.654 21.513M-78.353 666.52L650.654-62.487M-99.353 653.52L629.654-75.487M-42.353 701.52L686.654-27.487M-63.353 688.52L665.654-40.487M-158.353 608.52l729.007-729.007M-179.353 595.52l729.007-729.007M-122.353 643.52L606.654-85.487M-143.353 630.52L585.654-98.487M-238.353 546.52l729.007-729.007M-259.353 533.52l729.007-729.007M-202.353 581.52l729.007-729.007M-223.353 568.52l729.007-729.007M-378.353 574.52l729.007-729.007M-399.353 561.52l729.007-729.007M-363.353 596.52l729.007-729.007M-378.353 574.52l729.007-729.007M-399.353 561.52l729.007-729.007M-363.353 596.52l729.007-729.007M-458.353 516.52l729.007-729.007M-479.353 503.52l729.007-729.007M-422.353 551.52l729.007-729.007M-443.353 538.52l729.007-729.007M-538.353 454.52l729.007-729.007M-559.353 441.52l729.007-729.007M-502.353 489.52l729.007-729.007M-523.353 476.52l729.007-729.007M341.647 958.52l729.007-729.007M320.647 945.52l729.007-729.007M377.647 993.52l729.007-729.007M356.647 980.52l729.007-729.007M261.647 896.52l729.007-729.007M240.647 883.52l729.007-729.007M297.647 931.52l729.007-729.007M276.647 918.52l729.007-729.007M341.647 958.52l729.007-729.007M320.647 945.52l729.007-729.007M377.647 993.52l729.007-729.007M356.647 980.52l729.007-729.007M261.647 896.52l729.007-729.007M240.647 883.52l729.007-729.007M297.647 931.52l729.007-729.007M276.647 918.52l729.007-729.007M181.647 838.52l729.007-729.007M160.647 825.52L889.654 96.513M217.647 873.52l729.007-729.007M196.647 860.52l729.007-729.007M661.647 988.52l729.007-729.007M640.647 975.52l729.007-729.007M697.647 1023.52l729.007-729.007M676.647 1010.52l729.007-729.007M581.647 926.52l729.007-729.007M560.647 913.52l729.007-729.007M617.647 961.52l729.007-729.007M596.647 948.52l729.007-729.007M661.647 988.52l729.007-729.007M640.647 975.52l729.007-729.007M697.647 1023.52l729.007-729.007M676.647 1010.52l729.007-729.007M581.647 926.52l729.007-729.007M560.647 913.52l729.007-729.007M617.647 961.52l729.007-729.007M596.647 948.52l729.007-729.007M537.647 903.52l729.007-729.007M516.647 890.52l729.007-729.007M101.647 776.52L830.654 47.513M80.647 763.52L809.654 34.513M137.647 811.52L866.654 82.513M116.647 798.52L845.654 69.513" stroke="#0A33E0" mask="url(#b)"/></g></svg>