<svg id="Calque_1" data-name="Calque 1" xmlns="http://www.w3.org/2000/svg" viewBox="0 0 512.44 289.75"><defs><style>.cls-1{fill:#fff}</style></defs><title>blanc</title><path class="cls-1" d="M394.64 186.1h103.25a148.71 148.71 0 0 1 35 4.1 85.59 85.59 0 0 1 30.29 13.7 68.61 68.61 0 0 1 21.28 25.8q8 16.16 8 40.72 0 24.15-8 40.51a70 70 0 0 1-21.28 26.19 85.78 85.78 0 0 1-30.69 14.12 150.56 150.56 0 0 1-36.22 4.3H463.1v60.56h39.7a211.3 211.3 0 0 0 58.93-8.39 154.8 154.8 0 0 0 52.17-26.19q23.13-17.79 37.25-45.43t14.12-65.68q0-40.92-14.32-68.76t-37.65-44.4a152 152 0 0 0-53.2-23.75 259.59 259.59 0 0 0-60.56-7.16H326.6v170.2a83.71 83.71 0 0 1-2.79 21.93 51.73 51.73 0 0 1-9.16 18.53 44.55 44.55 0 0 1-16.54 12.94q-10.17 4.79-24.5 4.78t-24.52-4.78A42.67 42.67 0 0 1 232.76 337a56 56 0 0 1-9.18-18.54 78.59 78.59 0 0 1-3-21.93V126.36h-67.74v175.76q0 25.52 8.37 46.43a101.18 101.18 0 0 0 23.92 35.87q15.54 15 37.85 23.32t50.22 8.37q27.49 0 50-8.37a113 113 0 0 0 38.47-23.32 100.89 100.89 0 0 0 24.5-35.87q8.56-20.92 8.58-46.43z" transform="translate(-152.84 -126.36)"/></svg>